<svg width="120" height="28" viewBox="0 0 120 28" fill="none" xmlns="http://www.w3.org/2000/svg">
<path d="M59.8468 15.3172C57.4267 15.3172 55.4542 17.158 55.4542 19.6934C55.4542 22.2133 57.4267 24.0695 59.8468 24.0695C62.268 24.0695 64.2405 22.2133 64.2405 19.6934C64.2394 17.158 62.2669 15.3172 59.8468 15.3172ZM59.8468 22.3471C58.5205 22.3471 57.3773 21.2533 57.3773 19.6944C57.3773 18.1191 58.5215 17.0418 59.8468 17.0418C61.1732 17.0418 62.3163 18.1191 62.3163 19.6944C62.3163 21.2522 61.1732 22.3471 59.8468 22.3471ZM50.2632 15.3172C47.8431 15.3172 45.8706 17.158 45.8706 19.6934C45.8706 22.2133 47.8431 24.0695 50.2632 24.0695C52.6843 24.0695 54.6568 22.2133 54.6568 19.6934C54.6568 17.158 52.6843 15.3172 50.2632 15.3172ZM50.2632 22.3471C48.9368 22.3471 47.7937 21.2533 47.7937 19.6944C47.7937 18.1191 48.9379 17.0418 50.2632 17.0418C51.5895 17.0418 52.7327 18.1191 52.7327 19.6944C52.7337 21.2522 51.5895 22.3471 50.2632 22.3471ZM38.8644 16.6611V18.5173H43.3074C43.1747 19.5617 42.8269 20.3241 42.296 20.854C41.6498 21.5002 40.6383 22.2133 38.8644 22.2133C36.1295 22.2133 33.9913 20.0082 33.9913 17.2733C33.9913 14.5383 36.1295 12.3333 38.8644 12.3333C40.3399 12.3333 41.4173 12.9136 42.2126 13.6596L43.5225 12.3497C42.4112 11.2889 40.9367 10.4771 38.8644 10.4771C35.118 10.4771 31.9684 13.5269 31.9684 17.2733C31.9684 21.0197 35.118 24.0695 38.8644 24.0695C40.8863 24.0695 42.4123 23.4058 43.6048 22.1629C44.8313 20.9364 45.2131 19.2118 45.2131 17.8197C45.2131 17.3896 45.1801 16.9914 45.1133 16.66H38.8644V16.6611ZM85.4842 18.1026C85.12 17.1251 84.0087 15.3172 81.7378 15.3172C79.4834 15.3172 77.6097 17.0912 77.6097 19.6934C77.6097 22.1464 79.4669 24.0695 81.9529 24.0695C83.9583 24.0695 85.1189 22.843 85.6005 22.1299L84.1085 21.1349C83.6115 21.8645 82.9314 22.345 81.9529 22.345C80.9754 22.345 80.2788 21.8974 79.8312 21.0187L85.6828 18.5986L85.4842 18.1026ZM79.5163 19.5617C79.4669 17.8701 80.8262 17.0088 81.8047 17.0088C82.5671 17.0088 83.2133 17.3906 83.4294 17.937L79.5163 19.5617ZM74.7594 23.8051H76.6815V10.9421H74.7594V23.8051ZM71.6088 16.2958H71.5429C71.1118 15.7813 70.2825 15.3172 69.2391 15.3172C67.0505 15.3172 65.0451 17.2404 65.0451 19.7109C65.0451 22.1639 67.0505 24.0705 69.2391 24.0705C70.2835 24.0705 71.1118 23.6065 71.5429 23.0766H71.6088V23.7063C71.6088 25.3804 70.7136 26.2756 69.272 26.2756C68.0949 26.2756 67.3654 25.4308 67.067 24.7178L65.3929 25.4144C65.8734 26.574 67.1493 28.0001 69.272 28.0001C71.5265 28.0001 73.4331 26.6738 73.4331 23.4408V15.5837H71.6098V16.2958H71.6088ZM69.4048 22.3471C68.0785 22.3471 66.9682 21.2358 66.9682 19.7109C66.9682 18.1685 68.0785 17.0418 69.4048 17.0418C70.7136 17.0418 71.7415 18.1685 71.7415 19.7109C71.7415 21.2358 70.7136 22.3471 69.4048 22.3471ZM94.4917 10.9421H89.8912V23.8051H91.8102V18.932H94.4907C96.6185 18.932 98.7114 17.3916 98.7114 14.9376C98.7114 12.4835 96.6196 10.9421 94.4917 10.9421ZM94.5411 17.1416H91.8102V12.7325H94.5411C95.9765 12.7325 96.7914 13.921 96.7914 14.9376C96.7914 15.9336 95.9765 17.1416 94.5411 17.1416ZM106.407 15.2946C105.017 15.2946 103.577 15.9068 102.982 17.264L104.686 17.975C105.05 17.264 105.729 17.0315 106.44 17.0315C107.433 17.0315 108.442 17.6272 108.459 18.686V18.8188C108.111 18.6202 107.366 18.3228 106.456 18.3228C104.62 18.3228 102.749 19.3322 102.749 21.2183C102.749 22.9397 104.255 24.0479 105.943 24.0479C107.233 24.0479 107.945 23.4686 108.392 22.7895H108.458V23.7824H110.312V18.8507C110.313 16.5685 108.607 15.2946 106.407 15.2946ZM106.174 22.344C105.547 22.344 104.669 22.0291 104.669 21.2512C104.669 20.2583 105.762 19.8776 106.705 19.8776C107.548 19.8776 107.946 20.0597 108.459 20.3077C108.309 21.5002 107.284 22.344 106.174 22.344ZM117.064 15.5755L114.863 21.1524H114.797L112.513 15.5755H110.445L113.87 23.3698L111.917 27.7058H113.919L119.199 15.5755H117.064ZM99.7712 23.8051H101.69V10.9421H99.7712V23.8051Z" fill="#7264D6"/>
<path d="M38.529 3.47575C38.529 4.33802 38.2739 5.02433 37.7625 5.53675C37.1821 6.14589 36.4248 6.45046 35.4947 6.45046C34.6036 6.45046 33.8452 6.14177 33.2227 5.5244C32.5992 4.906 32.2874 4.14046 32.2874 3.22675C32.2874 2.31201 32.5992 1.54647 33.2227 0.929096C33.8452 0.310695 34.6036 0.00201051 35.4947 0.00201051C35.9371 0.00201051 36.36 0.088442 36.7613 0.260277C37.1636 0.433141 37.4857 0.662598 37.7265 0.949676L37.1842 1.49296C36.7757 1.00421 36.2129 0.760348 35.4936 0.760348C34.8433 0.760348 34.2815 0.988776 33.8072 1.44563C33.3328 1.90249 33.0962 2.49619 33.0962 3.22572C33.0962 3.95525 33.3328 4.54895 33.8072 5.00581C34.2815 5.46266 34.8433 5.69109 35.4936 5.69109C36.183 5.69109 36.7582 5.46163 37.2182 5.00169C37.5166 4.70227 37.6894 4.28554 37.7357 3.75151H35.4936V3.00964H38.4848C38.5157 3.17119 38.529 3.32656 38.529 3.47575Z" fill="#7264D6"/>
<path d="M43.2726 0.897257H40.4615V2.85433H42.9969V3.5962H40.4615V5.55327H43.2726V6.31264H39.6682V0.138919H43.2726V0.897257Z" fill="#7264D6"/>
<path d="M46.6176 6.31264H45.8243V0.897257H44.0998V0.138919H48.3421V0.897257H46.6176V6.31264Z" fill="#7264D6"/>
<path d="M51.4115 6.31264V0.138919H52.2048V6.31264H51.4115Z" fill="#7264D6"/>
<path d="M55.7229 6.31264H54.9296V0.897257H53.2051V0.138919H57.4475V0.897257H55.7229V6.31264Z" fill="#7264D6"/>
<path d="M65.4782 5.51519C64.8711 6.13873 64.1169 6.45051 63.2145 6.45051C62.3121 6.45051 61.5579 6.13873 60.9519 5.51519C60.3448 4.89164 60.0423 4.12816 60.0423 3.22577C60.0423 2.32338 60.3448 1.55989 60.9519 0.936347C61.5579 0.312802 62.3121 0 63.2145 0C64.1118 0 64.865 0.31383 65.4741 0.940462C66.0833 1.56709 66.3878 2.32852 66.3878 3.22577C66.3878 4.12816 66.0843 4.89164 65.4782 5.51519ZM61.5373 4.99762C61.9942 5.46065 62.5529 5.69114 63.2145 5.69114C63.8761 5.69114 64.4359 5.45962 64.8917 4.99762C65.3486 4.5346 65.578 3.94398 65.578 3.22577C65.578 2.50756 65.3486 1.91694 64.8917 1.45391C64.4359 0.990882 63.8761 0.760396 63.2145 0.760396C62.5529 0.760396 61.9942 0.991911 61.5373 1.45391C61.0815 1.91694 60.852 2.50756 60.852 3.22577C60.852 3.94398 61.0815 4.5346 61.5373 4.99762Z" fill="#7264D6"/>
<path d="M67.5012 6.31264V0.138919H68.4663L71.4668 4.94104H71.5007L71.4668 3.75157V0.138919H72.2601V6.31264H71.4318L68.2924 1.27694H68.2585L68.2924 2.46641V6.31264H67.5012Z" fill="#7264D6"/>
<path fill-rule="evenodd" clip-rule="evenodd" d="M0.195023 1.11893C0.069479 1.39675 0 1.73886 0 2.13793V24.8943C0 25.2941 0.0695224 25.6361 0.19514 25.9138L12.5916 13.5155L0.195023 1.11893ZM0.889567 26.6336C1.35039 26.8375 1.95483 26.7779 2.61457 26.4037L17.1947 18.1186L13.2987 14.2226L0.889567 26.6336ZM18.0971 17.6068L22.6802 15.0029C24.1176 14.1849 24.1176 12.8483 22.6802 12.0313L18.0949 9.42582L14.0058 13.5155L18.0971 17.6068ZM17.1931 8.91341L2.61457 0.629498C1.95491 0.254642 1.35054 0.195327 0.88974 0.399433L13.2987 12.8084L17.1931 8.91341Z" fill="#7264D6"/>
</svg>
