<svg width="112" height="28" viewBox="0 0 112 28" fill="none" xmlns="http://www.w3.org/2000/svg">
<path d="M79.8893 12.0409V14.5988H78.286V16.2763H79.8893V21.9759C79.8893 23.9221 80.7697 24.7006 82.9847 24.7006C83.374 24.7006 83.7447 24.6543 84.069 24.5987V22.9397C83.791 22.9676 83.6149 22.9861 83.3091 22.9861C82.3175 22.9861 81.8819 22.5227 81.8819 21.4662V16.2763H84.069V14.5988H81.8819V12.0409H79.8893Z" fill="#7264D6"/>
<path d="M89.7116 24.8396C92.6587 24.8396 94.466 22.8656 94.466 19.5941C94.466 16.3411 92.6495 14.3578 89.7116 14.3578C86.7645 14.3578 84.948 16.3411 84.948 19.5941C84.948 22.8656 86.7552 24.8396 89.7116 24.8396ZM89.7116 23.0695C87.9785 23.0695 87.0054 21.7998 87.0054 19.5941C87.0054 17.4069 87.9785 16.128 89.7116 16.128C91.4354 16.128 92.4178 17.4069 92.4178 19.5941C92.4178 21.7906 91.4354 23.0695 89.7116 23.0695Z" fill="#7264D6"/>
<path d="M96.0122 24.645H98.0047V18.6859C98.0047 17.2679 99.0705 16.3133 100.581 16.3133C100.933 16.3133 101.526 16.3782 101.693 16.4338V14.4691C101.48 14.4134 101.1 14.3856 100.804 14.3856C99.4876 14.3856 98.3662 15.1085 98.0789 16.1002H97.9306V14.5525H96.0122V24.645Z" fill="#7264D6"/>
<path d="M106.641 16.0538C108.114 16.0538 109.078 17.0825 109.125 18.6673H104.027C104.138 17.0918 105.167 16.0538 106.641 16.0538ZM109.115 21.9203C108.745 22.7081 107.92 23.1436 106.715 23.1436C105.121 23.1436 104.092 22.0222 104.027 20.2521V20.1409H111.154V19.4458C111.154 16.2763 109.458 14.3578 106.65 14.3578C103.805 14.3578 101.998 16.406 101.998 19.6312C101.998 22.8563 103.768 24.8396 106.659 24.8396C108.967 24.8396 110.58 23.7275 111.034 21.9203H109.115Z" fill="#7264D6"/>
<path d="M66.8224 20.918C66.9761 23.3963 69.0413 24.9812 72.1152 24.9812C75.4003 24.9812 77.4559 23.3194 77.4559 20.6682C77.4559 18.5838 76.284 17.4311 73.4407 16.7683L71.9134 16.3937C70.1076 15.971 69.3775 15.4043 69.3775 14.4149C69.3775 13.1662 70.511 12.3497 72.2112 12.3497C73.825 12.3497 74.9392 13.147 75.1409 14.4245H77.235C77.1101 12.0903 75.0545 10.4478 72.24 10.4478C69.2142 10.4478 67.197 12.0903 67.197 14.559C67.197 16.5954 68.3401 17.8057 70.8472 18.3917L72.6339 18.8239C74.4685 19.2562 75.2754 19.8902 75.2754 20.9468C75.2754 22.1763 74.0075 23.0697 72.2784 23.0697C70.4245 23.0697 69.1374 22.234 68.9549 20.918H66.8224Z" fill="#7264D6"/>
<path d="M46.1815 14.3856C44.8099 14.3856 43.6236 15.0715 43.012 16.2207H42.8637V14.5525H40.9452V27.9999H42.9378V23.1158H43.0954C43.6236 24.1816 44.7636 24.8118 46.2 24.8118C48.7487 24.8118 50.3705 22.8007 50.3705 19.5941C50.3705 16.3875 48.7487 14.3856 46.1815 14.3856ZM45.6162 23.0232C43.948 23.0232 42.9007 21.7071 42.9007 19.6034C42.9007 17.4903 43.948 16.1743 45.6255 16.1743C47.3122 16.1743 48.3224 17.4625 48.3224 19.5941C48.3224 21.7349 47.3122 23.0232 45.6162 23.0232Z" fill="#7264D6"/>
<path d="M57.3428 14.3856C55.9712 14.3856 54.7849 15.0715 54.1733 16.2207H54.025V14.5525H52.1066V27.9999H54.0991V23.1158H54.2567C54.7849 24.1816 55.9249 24.8118 57.3613 24.8118C59.91 24.8118 61.5318 22.8007 61.5318 19.5941C61.5318 16.3875 59.91 14.3856 57.3428 14.3856ZM56.7775 23.0232C55.1093 23.0232 54.062 21.7071 54.062 19.6034C54.062 17.4903 55.1093 16.1743 56.7868 16.1743C58.4735 16.1743 59.4837 17.4625 59.4837 19.5941C59.4837 21.7349 58.4735 23.0232 56.7775 23.0232Z" fill="#7264D6"/>
<path d="M37.3703 24.645H39.6564L34.6518 10.784H32.3369L27.3323 24.645H29.5416L30.8192 20.966H36.1023L37.3703 24.645ZM33.3839 13.3007H33.5472L35.5548 19.1601H31.3667L33.3839 13.3007Z" fill="#7264D6"/>
<path d="M28.6707 0.329004V7.01567H31.085C33.0775 7.01567 34.2313 5.78769 34.2313 3.65148C34.2313 1.54771 33.0682 0.329004 31.085 0.329004H28.6707ZM29.7087 1.27431H30.9691C32.3546 1.27431 33.1748 2.15475 33.1748 3.66538C33.1748 5.19919 32.3685 6.07036 30.9691 6.07036H29.7087V1.27431Z" fill="#7264D6"/>
<path d="M37.7651 7.11298C39.2387 7.11298 40.1423 6.12596 40.1423 4.49021C40.1423 2.86373 39.2341 1.87208 37.7651 1.87208C36.2916 1.87208 35.3833 2.86373 35.3833 4.49021C35.3833 6.12596 36.2869 7.11298 37.7651 7.11298ZM37.7651 6.22791C36.8986 6.22791 36.412 5.59307 36.412 4.49021C36.412 3.39662 36.8986 2.75715 37.7651 2.75715C38.627 2.75715 39.1182 3.39662 39.1182 4.49021C39.1182 5.58844 38.627 6.22791 37.7651 6.22791Z" fill="#7264D6"/>
<path d="M47.8373 1.96939H46.841L45.942 5.82013H45.8633L44.8253 1.96939H43.8707L42.8327 5.82013H42.7586L41.855 1.96939H40.8448L42.235 7.01567H43.259L44.297 3.29931H44.3758L45.4184 7.01567H46.4518L47.8373 1.96939Z" fill="#7264D6"/>
<path d="M48.9846 7.01567H49.9809V4.0639C49.9809 3.27614 50.4489 2.78495 51.1857 2.78495C51.9225 2.78495 52.2747 3.1881 52.2747 3.99902V7.01567H53.271V3.74879C53.271 2.54862 52.65 1.87208 51.524 1.87208C50.764 1.87208 50.2636 2.21035 50.018 2.77105H49.9438V1.96939H48.9846V7.01567Z" fill="#7264D6"/>
<path d="M54.84 7.01567H55.8363V0H54.84V7.01567Z" fill="#7264D6"/>
<path d="M59.5832 7.11298C61.0568 7.11298 61.9604 6.12596 61.9604 4.49021C61.9604 2.86373 61.0521 1.87208 59.5832 1.87208C58.1096 1.87208 57.2014 2.86373 57.2014 4.49021C57.2014 6.12596 58.105 7.11298 59.5832 7.11298ZM59.5832 6.22791C58.7167 6.22791 58.2301 5.59307 58.2301 4.49021C58.2301 3.39662 58.7167 2.75715 59.5832 2.75715C60.4451 2.75715 60.9363 3.39662 60.9363 4.49021C60.9363 5.58844 60.4451 6.22791 59.5832 6.22791Z" fill="#7264D6"/>
<path d="M64.9288 6.26035C64.3867 6.26035 63.9928 5.99622 63.9928 5.5421C63.9928 5.09725 64.3079 4.86092 65.003 4.81458L66.2356 4.73581V5.15749C66.2356 5.78306 65.6795 6.26035 64.9288 6.26035ZM64.674 7.09907C65.3366 7.09907 65.888 6.81178 66.1892 6.30668H66.268V7.01567H67.2272V3.56807C67.2272 2.50228 66.5136 1.87208 65.2486 1.87208C64.104 1.87208 63.2884 2.42814 63.1865 3.29468H64.1503C64.2615 2.93787 64.6462 2.73398 65.2022 2.73398C65.8834 2.73398 66.2356 3.03518 66.2356 3.56807V4.00366L64.8686 4.08243C63.6684 4.15657 62.9919 4.6802 62.9919 5.58844C62.9919 6.51057 63.7008 7.09907 64.674 7.09907Z" fill="#7264D6"/>
<path d="M70.6081 7.09907C71.3032 7.09907 71.8917 6.77007 72.1929 6.21864H72.2716V7.01567H73.2262V0H72.2299V2.77105H72.1558C71.8824 2.21499 71.2985 1.88598 70.6081 1.88598C69.3338 1.88598 68.5136 2.89616 68.5136 4.49021C68.5136 6.08889 69.3245 7.09907 70.6081 7.09907ZM70.8907 2.78032C71.7248 2.78032 72.2485 3.44296 72.2485 4.49484C72.2485 5.55137 71.7295 6.20474 70.8907 6.20474C70.0474 6.20474 69.5423 5.56063 69.5423 4.49021C69.5423 3.42906 70.052 2.78032 70.8907 2.78032Z" fill="#7264D6"/>
<path d="M79.6867 7.11298C81.1603 7.11298 82.0639 6.12596 82.0639 4.49021C82.0639 2.86373 81.1557 1.87208 79.6867 1.87208C78.2132 1.87208 77.3049 2.86373 77.3049 4.49021C77.3049 6.12596 78.2085 7.11298 79.6867 7.11298ZM79.6867 6.22791C78.8202 6.22791 78.3337 5.59307 78.3337 4.49021C78.3337 3.39662 78.8202 2.75715 79.6867 2.75715C80.5486 2.75715 81.0398 3.39662 81.0398 4.49021C81.0398 5.58844 80.5486 6.22791 79.6867 6.22791Z" fill="#7264D6"/>
<path d="M83.3827 7.01567H84.379V4.0639C84.379 3.27614 84.847 2.78495 85.5838 2.78495C86.3206 2.78495 86.6727 3.1881 86.6727 3.99902V7.01567H87.669V3.74879C87.669 2.54862 87.0481 1.87208 85.9221 1.87208C85.1621 1.87208 84.6617 2.21035 84.4161 2.77105H84.3419V1.96939H83.3827V7.01567Z" fill="#7264D6"/>
<path d="M92.2575 0.713615V1.99256H91.4558V2.83129H92.2575V5.68111C92.2575 6.65422 92.6977 7.04347 93.8052 7.04347C93.9998 7.04347 94.1852 7.0203 94.3474 6.9925V6.16303C94.2083 6.17694 94.1203 6.1862 93.9674 6.1862C93.4715 6.1862 93.2538 5.95451 93.2538 5.42625V2.83129H94.3474V1.99256H93.2538V0.713615H92.2575Z" fill="#7264D6"/>
<path d="M95.6847 7.01567H96.681V4.06853C96.681 3.30394 97.1351 2.78958 97.9506 2.78958C98.655 2.78958 99.0303 3.19736 99.0303 4.00366V7.01567H100.027V3.75806C100.027 2.55789 99.364 1.87671 98.2889 1.87671C97.529 1.87671 96.9961 2.21499 96.7505 2.78032H96.6717V0H95.6847V7.01567Z" fill="#7264D6"/>
<path d="M103.621 2.72008C104.357 2.72008 104.839 3.23443 104.863 4.02682H102.314C102.369 3.23907 102.884 2.72008 103.621 2.72008ZM104.858 5.65331C104.673 6.04719 104.26 6.26498 103.658 6.26498C102.861 6.26498 102.346 5.70428 102.314 4.81922V4.76361H105.877V4.41607C105.877 2.83129 105.029 1.87208 103.625 1.87208C102.203 1.87208 101.299 2.89616 101.299 4.50875C101.299 6.12133 102.184 7.11298 103.63 7.11298C104.784 7.11298 105.59 6.55691 105.817 5.65331H104.858Z" fill="#7264D6"/>
<path d="M16.521 13.2692C16.5452 11.3924 17.5531 9.61648 19.1521 8.63345C18.1434 7.19282 16.4538 6.27942 14.696 6.22443C12.8212 6.02763 11.0036 7.34631 10.0482 7.34631C9.0743 7.34631 7.60333 6.24396 6.01933 6.27655C3.95467 6.34326 2.02988 7.51712 1.02537 9.32219C-1.13391 13.0607 0.47672 18.5549 2.54514 21.5768C3.58001 23.0566 4.78948 24.7095 6.37204 24.6509C7.92068 24.5866 8.49907 23.6634 10.3684 23.6634C12.2204 23.6634 12.763 24.6509 14.3777 24.6136C16.0395 24.5866 17.0865 23.1273 18.085 21.6335C18.8286 20.5792 19.4007 19.4139 19.7803 18.1808C17.8274 17.3548 16.5233 15.3895 16.521 13.2692Z" fill="#7264D6"/>
<path d="M13.4711 4.23708C14.3772 3.14939 14.8236 1.75134 14.7155 0.339844C13.3312 0.485233 12.0526 1.14682 11.1343 2.19278C10.2363 3.21473 9.76899 4.58818 9.85733 5.94573C11.2421 5.95999 12.6034 5.31634 13.4711 4.23708Z" fill="#7264D6"/>
</svg>
