<svg width="40" height="24" viewBox="0 0 40 24" fill="none" xmlns="http://www.w3.org/2000/svg">
<path d="M40 12C40 18.5846 34.6462 24 28 24C21.4154 24 16 18.5846 16 12C16 5.41538 21.3538 0 27.9385 0C34.6462 0 40 5.41538 40 12Z" fill="#F9B50B"/>
<path d="M23.9385 12.0615C23.9385 11.2 23.8154 10.3385 23.6923 9.53846H16.3077C16.3692 9.10769 16.4923 8.73846 16.6154 8.24615H23.2C23.0769 7.81538 22.8923 7.38462 22.7077 6.95385H17.1077C17.2923 6.52308 17.5385 6.15385 17.7846 5.66154H22.0308C21.7846 5.23077 21.4769 4.8 21.1077 4.36923H18.7692C19.1385 3.93846 19.5077 3.56923 20 3.13846C17.9077 1.16923 15.0769 0 11.9385 0C5.41538 0.184615 0 5.41538 0 12C0 18.5846 5.35385 24 12 24C15.1385 24 17.9077 22.7692 20.0615 20.8615C20.4923 20.4923 20.8615 20.0615 21.2923 19.5692H18.8308C18.5231 19.2 18.2154 18.7692 17.9692 18.3385H22.1538C22.4 17.9692 22.6462 17.5385 22.8308 17.0462H17.2308C17.0462 16.6769 16.8615 16.2462 16.7385 15.7538H23.3231C23.6923 14.6462 23.9385 13.4154 23.9385 12.0615Z" fill="#C8191C"/>
<path d="M16.2464 15.0771L16.431 13.9694C16.3695 13.9694 16.2464 14.0309 16.1233 14.0309C15.6925 14.0309 15.631 13.7847 15.6925 13.6617L16.0618 11.4463H16.7387L16.9233 10.2155H16.3079L16.431 9.47705H15.1387C15.1387 9.47705 14.4002 13.6617 14.4002 14.154C14.4002 14.8924 14.831 15.2617 15.4464 15.2617C15.8156 15.2617 16.1233 15.1386 16.2464 15.0771Z" fill="white"/>
<path d="M16.6767 13.0461C16.6767 14.8307 17.9075 15.2615 18.8921 15.2615C19.8152 15.2615 20.2459 15.0769 20.2459 15.0769L20.4921 13.8461C20.4921 13.8461 19.8152 14.1538 19.1382 14.1538C17.7229 14.1538 17.969 13.1077 17.969 13.1077H20.5536C20.5536 13.1077 20.7382 12.3077 20.7382 11.9384C20.7382 11.1384 20.3075 10.0923 18.8921 10.0923C17.6613 10.0307 16.6767 11.4461 16.6767 13.0461ZM18.8921 11.2C19.569 11.2 19.4459 12 19.4459 12.0615H18.0305C18.0921 12 18.2152 11.2 18.8921 11.2Z" fill="white"/>
<path d="M26.9536 15.077L27.1998 13.6616C27.1998 13.6616 26.5844 13.9693 26.0921 13.9693C25.2305 13.9693 24.7998 13.2923 24.7998 12.4923C24.7998 10.9539 25.5382 10.1539 26.4613 10.1539C27.0767 10.1539 27.6305 10.5231 27.6305 10.5231L27.8152 9.16926C27.8152 9.16926 27.0767 8.86157 26.3382 8.86157C24.8613 8.86157 23.4459 10.1539 23.4459 12.5539C23.4459 14.1539 24.1844 15.2 25.7228 15.2C26.2767 15.2616 26.9536 15.077 26.9536 15.077Z" fill="white"/>
<path d="M9.29182 10.0308C8.43028 10.0308 7.75335 10.2769 7.75335 10.2769L7.56874 11.3846C7.56874 11.3846 8.12258 11.1385 8.98412 11.1385C9.41489 11.1385 9.78412 11.2 9.78412 11.5692C9.78412 11.8154 9.72258 11.8769 9.72258 11.8769H9.16874C8.06105 11.8769 6.89182 12.3077 6.89182 13.7846C6.89182 14.9538 7.63028 15.2 8.12258 15.2C8.98412 15.2 9.41489 14.6461 9.47643 14.6461L9.41489 15.1385H10.461L10.9534 11.6308C10.9534 10.0923 9.72258 10.0308 9.29182 10.0308ZM9.53797 12.8615C9.53797 13.0461 9.41489 14.0923 8.67643 14.0923C8.3072 14.0923 8.18412 13.7846 8.18412 13.6C8.18412 13.2923 8.36874 12.8615 9.35335 12.8615C9.47643 12.8615 9.53797 12.8615 9.53797 12.8615Z" fill="white"/>
<path d="M12.1851 15.2C12.4928 15.2 14.0928 15.2615 14.0928 13.5385C14.0928 11.9385 12.5543 12.2462 12.5543 11.6308C12.5543 11.3231 12.8005 11.2 13.2313 11.2C13.4159 11.2 14.0928 11.2615 14.0928 11.2615L14.2774 10.0923C14.2774 10.0923 13.8466 9.96924 13.0466 9.96924C12.1236 9.96924 11.1389 10.3385 11.1389 11.6308C11.1389 13.1077 12.7389 12.9846 12.7389 13.5385C12.7389 13.9077 12.3082 13.9692 12.0005 13.9692C11.4466 13.9692 10.8313 13.7846 10.8313 13.7846L10.6466 14.9539C10.7697 15.0769 11.1389 15.2 12.1851 15.2Z" fill="white"/>
<path d="M37.5382 9.04614L37.2921 10.7692C37.2921 10.7692 36.7997 10.1538 36.0613 10.1538C34.8921 10.1538 33.9074 11.5692 33.9074 13.2308C33.9074 14.2769 34.3997 15.3231 35.5074 15.3231C36.2459 15.3231 36.7382 14.8308 36.7382 14.8308L36.6767 15.2615H37.969L38.8921 9.16922L37.5382 9.04614ZM36.9228 12.3692C36.9228 13.0461 36.6151 13.9692 35.8767 13.9692C35.4459 13.9692 35.1997 13.6 35.1997 12.9231C35.1997 11.8769 35.6305 11.2615 36.2459 11.2615C36.6767 11.3231 36.9228 11.6308 36.9228 12.3692Z" fill="white"/>
<path d="M2.33895 15.1385L3.07742 10.5846L3.20049 15.1385H4.06203L5.72357 10.5846L5.04665 15.1385H6.40049L7.44665 9.04614H5.35434L4.06203 12.8L4.00049 9.04614H2.15434L1.10818 15.1385H2.33895Z" fill="white"/>
<path d="M22.0308 15.1384C22.4 13.0461 22.4615 11.323 23.3846 11.6307C23.5077 10.8307 23.6923 10.4615 23.8154 10.1538H23.5692C23.0154 10.1538 22.5231 10.8923 22.5231 10.8923L22.6462 10.2153H21.4154L20.6154 15.1384H22.0308Z" fill="white"/>
<path d="M29.9072 10.0308C29.0457 10.0308 28.3687 10.2769 28.3687 10.2769L28.1841 11.3846C28.1841 11.3846 28.738 11.1385 29.5995 11.1385C30.0303 11.1385 30.3995 11.2 30.3995 11.5692C30.3995 11.8154 30.338 11.8769 30.338 11.8769H29.7841C28.6764 11.8769 27.5072 12.3077 27.5072 13.7846C27.5072 14.9538 28.2457 15.2 28.738 15.2C29.5995 15.2 30.0303 14.6461 30.0918 14.6461L30.0303 15.1385H31.1995L31.6918 11.6308C31.6918 10.0923 30.338 10.0308 29.9072 10.0308ZM30.2149 12.8615C30.2149 13.0461 30.0918 14.0923 29.3534 14.0923C28.9841 14.0923 28.861 13.7846 28.861 13.6C28.861 13.2923 29.0457 12.8615 30.0303 12.8615C30.1534 12.8615 30.1534 12.8615 30.2149 12.8615Z" fill="white"/>
<path d="M32.6774 15.1384C33.0466 13.0461 33.1082 11.323 34.0313 11.6307C34.1543 10.8307 34.3389 10.4615 34.462 10.1538H34.2159C33.662 10.1538 33.1697 10.8923 33.1697 10.8923L33.2928 10.2153H32.062L31.262 15.1384H32.6774Z" fill="white"/>
</svg>
