<svg width="26" height="26" viewBox="0 0 26 26" fill="none" xmlns="http://www.w3.org/2000/svg">
<path d="M16.4667 12.4976L13.681 9.42029L10.5857 12.1836L13.3714 15.3237L16.4667 12.4976Z" fill="#137ABE"/>
<path d="M8.35714 6.90821L11.1429 9.98551L14.2381 7.22222L11.4524 4.14493L8.35714 6.90821Z" fill="#137ABE"/>
<path d="M18.6333 17.8357L15.8476 14.7585L12.7524 17.5845L15.5381 20.6618L18.6333 17.8357Z" fill="#137ABE"/>
<path d="M15.4143 22.9855L10.3381 17.2705L11.7619 16.0145L8.17143 11.9952L9.59524 10.7391L6.00476 6.71981L11.6381 1.63285L13.4333 3.57971L16.5286 0.879227L18.3238 2.76328L19.5 1.69565C19.2524 1.57005 18.9429 1.38164 18.6952 1.25604C16.9 0.502415 14.981 0 12.9381 0C5.81905 0 0 5.84058 0 13C0 20.1594 5.81905 26 13 26C15.3524 26 17.519 25.372 19.3762 24.3043C19.9952 23.9275 20.5524 23.5507 21.1095 23.1739L18.5095 20.2222L15.4143 22.9855Z" fill="#137ABE"/>
<path d="M14.0524 5.40097L16.0952 7.72464L18.4476 5.65217L16.3429 3.3285L14.0524 5.40097Z" fill="#137ABE"/>
<path d="M20.5524 10.2995L18.4476 7.97584L16.1571 10.1111L18.2619 12.372L20.5524 10.2995Z" fill="#137ABE"/>
<path d="M22.5333 15.1981L20.4286 12.8744L18.1381 14.9469L20.2429 17.3333L22.5333 15.1981Z" fill="#137ABE"/>
<path d="M22.6571 7.53623L21.1095 8.91787L22.5333 10.4879L24.019 9.10628L22.6571 7.53623Z" fill="#137ABE"/>
<path d="M23.0905 13.5024L24.4524 15.0725L26 13.6908L24.5762 12.1208L23.0905 13.5024Z" fill="#137ABE"/>
<path d="M19.1286 4.33333L20.5524 5.90338L22.0381 4.52174L20.6762 2.95169L19.1286 4.33333Z" fill="#137ABE"/>
<path d="M20.181 19.657L22.2857 21.9807L24.5762 19.9082L22.4714 17.5845L20.181 19.657Z" fill="#137ABE"/>
</svg>
