<svg width="40" height="26" viewBox="0 0 40 26" fill="none" xmlns="http://www.w3.org/2000/svg">
<path d="M20.0926 21.8737C22.5012 19.6553 24.0224 16.4861 24.0224 13C24.0224 9.45054 22.5012 6.28136 20.0926 4.12631C17.9376 2.2248 15.1487 1.02051 12.0429 1.02051C5.38761 1.02051 0 6.40812 0 13C0 19.6553 5.38761 25.0429 12.0429 25.0429C15.1487 24.9795 17.9376 23.7753 20.0926 21.8737Z" fill="#3362AB"/>
<path d="M20.0921 21.8737C22.5007 19.6552 24.0219 16.486 24.0219 12.9999C24.0219 9.45045 22.5007 6.28127 20.0921 4.12622" fill="#3362AB"/>
<path d="M20.0921 21.8737C22.5007 19.6552 24.0219 16.486 24.0219 12.9999C24.0219 9.45045 22.5007 6.28127 20.0921 4.12622" stroke="#3362AB" stroke-width="0.3097"/>
<path d="M28.1429 0.957031C25.0371 0.957031 22.1848 2.16132 20.0931 4.06283C19.6494 4.44313 19.2691 4.88682 18.8888 5.3305H21.2974C21.6143 5.7108 21.9312 6.15449 22.1848 6.59818H17.9381C17.6845 6.97848 17.431 7.42216 17.2409 7.86585H22.882C23.0721 8.30954 23.2623 8.68984 23.3891 9.13352H16.7338C16.607 9.57721 16.4803 9.95751 16.3535 10.4012H23.706C23.8961 11.2252 23.9595 12.0492 23.9595 12.9365C23.9595 14.2676 23.7694 15.5353 23.3257 16.7396H16.6704C16.7972 17.1833 16.9873 17.6269 17.1775 18.0072H22.8186C22.6285 18.4509 22.3749 18.8946 22.1214 19.2749H17.8747C18.1282 19.7186 18.4451 20.1623 18.7621 20.5426H21.1707C20.7903 20.9863 20.41 21.43 19.9663 21.8103C22.1214 23.7118 24.9103 24.9161 28.0161 24.9161C34.6714 24.9161 39.9956 19.5285 39.9956 12.8732C40.1857 6.34465 34.7981 0.957031 28.1429 0.957031Z" fill="#C9191B"/>
<path d="M10.5219 15.9156H9.00071L9.88808 11.2252L7.85981 15.9156H6.52875L6.27522 11.2886L5.38784 15.9156H4.05679L5.19769 9.83081H7.5429L7.66965 13.6338L9.31763 9.83081H11.7262L10.5219 15.9156Z" fill="white"/>
<path d="M27.2552 15.9155C26.8749 16.0423 26.4946 16.1056 26.1777 16.1056C25.4171 16.1056 24.9734 15.7253 24.9734 15.0281C24.9734 14.9014 24.9734 14.7112 25.0368 14.5844L25.1002 14.0774L25.1636 13.6971L25.8608 9.89404H27.3186L27.1285 11.035H27.8891L27.6989 12.2392H26.9383L26.558 14.3309C26.558 14.3943 26.558 14.5211 26.558 14.5211C26.558 14.7746 26.7482 14.9014 27.0651 14.9014C27.2552 14.9014 27.382 14.9014 27.4454 14.838L27.2552 15.9155Z" fill="white"/>
<path d="M31.5656 11.0351C31.4388 10.9717 31.4388 10.9717 31.3754 10.9717C31.312 10.9717 31.2486 10.9717 31.2486 10.9717C31.1853 10.9717 31.1219 10.9717 31.0585 10.9717C30.5514 10.9717 30.2345 11.1618 29.7274 11.7957L29.8542 11.0351H28.6499L27.7625 15.979H29.2837C29.7908 12.9366 30.0443 12.4295 30.7416 12.4295C30.8049 12.4295 30.8683 12.4295 30.9317 12.4295L31.1219 12.4929L31.5656 11.0351Z" fill="white"/>
<path d="M21.2964 12.5562C21.2964 13.19 21.6767 13.6337 22.4374 13.9506C23.0712 14.2042 23.1346 14.2675 23.1346 14.5211C23.1346 14.838 22.881 14.9648 22.2472 14.9648C21.8035 14.9648 21.3598 14.9014 20.9161 14.7746L20.726 15.9155H20.7894L21.0429 15.9789C21.1063 15.9789 21.2964 16.0423 21.4232 16.0423C21.8035 16.0423 22.057 16.1057 22.2472 16.1057C23.8318 16.1057 24.5924 15.5986 24.5924 14.4577C24.5924 13.7605 24.2755 13.3802 23.5149 13.0632C22.881 12.8097 22.8176 12.7463 22.8176 12.4928C22.8176 12.2393 23.0712 12.1125 23.5782 12.1125C23.8952 12.1125 24.2755 12.1125 24.6558 12.1759L24.8459 11.035C24.4656 10.9716 23.8952 10.9082 23.5149 10.9082C21.8669 10.9082 21.2964 11.6688 21.2964 12.5562Z" fill="white"/>
<path d="M14.3252 13.7605C14.1351 13.7605 14.0717 13.7605 14.0083 13.7605C13.1843 13.7605 12.7406 14.014 12.7406 14.5211C12.7406 14.838 12.9308 15.0281 13.2477 15.0281C13.8182 14.9648 14.2618 14.4577 14.3252 13.7605ZM15.4027 15.9155H14.1351L14.1985 15.4084C13.8182 15.7888 13.3111 15.9789 12.6139 15.9789C11.7899 15.9789 11.2828 15.4084 11.2828 14.6478C11.2828 13.4435 12.2336 12.7463 13.8815 12.7463C14.0717 12.7463 14.2618 12.7463 14.5154 12.8097C14.5788 12.6196 14.5787 12.5562 14.5787 12.4928C14.5787 12.1759 14.3252 12.0491 13.628 12.0491C13.1843 12.0491 12.7406 12.1125 12.4237 12.1759L12.2336 12.2393L12.1068 12.3026L12.2969 11.1617C13.0576 10.9716 13.5012 10.9082 14.0717 10.9082C15.3394 10.9082 16.0366 11.4153 16.0366 12.366C16.0366 12.6196 16.0366 12.8097 15.9098 13.3168L15.5929 15.0915L15.5295 15.4084L15.4661 15.662V15.8521L15.4027 15.9155Z" fill="white"/>
<path d="M19.5219 12.8733C19.5219 12.7465 19.5219 12.6831 19.5219 12.6197C19.5219 12.2394 19.2684 11.9859 18.8247 11.9859C18.3176 11.9859 18.0007 12.3028 17.874 12.8733H19.5219ZM20.2825 15.8523C19.7755 15.9791 19.2684 16.0424 18.7613 16.0424C17.1134 16.0424 16.226 15.2818 16.226 13.824C16.226 12.1127 17.3035 10.845 18.8247 10.845C20.029 10.845 20.853 11.5422 20.853 12.6197C20.853 13 20.7896 13.3169 20.6628 13.824H17.6838C17.6838 13.8874 17.6838 13.9508 17.6838 13.9508C17.6838 14.5212 18.1275 14.8381 19.0149 14.8381C19.5219 14.8381 20.029 14.7114 20.5995 14.5212L20.2825 15.8523Z" fill="white"/>
<path d="M34.6711 13.0632C34.6711 12.5562 34.481 12.0491 33.8471 12.0491C33.0865 12.0491 32.6428 12.9365 32.6428 13.7605C32.6428 14.4577 32.9598 14.9014 33.5302 14.9014C33.8471 14.9014 34.5444 14.4577 34.6711 13.6971C34.6711 13.5069 34.6711 13.2534 34.6711 13.0632ZM36.2557 13.6971C36.0022 15.3451 34.8613 16.1057 33.3401 16.1057C31.6287 16.1057 30.9949 15.0915 30.9949 13.8239C30.9949 12.0491 32.1358 10.9082 33.9105 10.9082C35.4951 10.9082 36.2557 11.859 36.2557 13.1266C36.3191 13.3802 36.3191 13.3802 36.2557 13.6971Z" fill="white"/>
</svg>
