<svg width="482" height="322" viewBox="0 0 482 322" fill="none" xmlns="http://www.w3.org/2000/svg">
<rect width="482" height="322" rx="20" fill="url(#paint0_linear_2_230)"/>
<mask id="mask0_2_230" style="mask-type:alpha" maskUnits="userSpaceOnUse" x="0" y="0" width="482" height="322">
<rect width="482" height="322" rx="20" fill="#8476E3"/>
</mask>
<g mask="url(#mask0_2_230)">
<circle cx="37.7667" cy="67.1761" r="70.2667" stroke="#9487EA"/>
<circle cx="50.6333" cy="59.8237" r="70.2667" stroke="#9487EA"/>
<circle cx="63.5" cy="52.4713" r="70.2667" stroke="#9487EA"/>
<circle cx="76.3666" cy="45.119" r="70.2667" stroke="#9487EA"/>
<circle cx="89.2333" cy="37.7665" r="70.2667" stroke="#9487EA"/>
<circle cx="368.299" cy="253.415" r="68.2015" transform="rotate(65 368.299 253.415)" stroke="#6657D2"/>
<circle cx="380.048" cy="261.719" r="68.2015" transform="rotate(65 380.048 261.719)" stroke="#6657D2"/>
<circle cx="391.795" cy="270.024" r="68.2015" transform="rotate(65 391.795 270.024)" stroke="#6657D2"/>
<circle cx="403.544" cy="278.328" r="68.2015" transform="rotate(65 403.544 278.328)" stroke="#6657D2"/>
<circle cx="415.292" cy="286.632" r="68.2015" transform="rotate(65 415.292 286.632)" stroke="#6657D2"/>
<circle cx="427.039" cy="294.936" r="68.2015" transform="rotate(65 427.039 294.936)" stroke="#6657D2"/>
<circle cx="438.788" cy="303.241" r="68.2015" transform="rotate(65 438.788 303.241)" stroke="#6657D2"/>
<circle cx="450.535" cy="311.545" r="68.2015" transform="rotate(65 450.535 311.545)" stroke="#6657D2"/>
</g>
<path d="M48.1172 229.723H49.9043L44.7578 244H43.1172L38 229.723H39.7578L43.0391 238.961C43.4167 240.022 43.7161 241.054 43.9375 242.057C44.1719 241.002 44.4779 239.95 44.8555 238.902L48.1172 229.723ZM60.8516 244L59.0742 239.459H53.3516L51.5938 244H49.9141L55.5586 229.664H56.9551L62.5703 244H60.8516ZM58.5566 237.965L56.8965 233.541C56.6816 232.981 56.4603 232.294 56.2324 231.48C56.0892 232.105 55.8841 232.792 55.6172 233.541L53.9375 237.965H58.5566ZM64.5332 244V229.723H66.1934V242.496H72.4922V244H64.5332ZM74.9238 244V229.723H76.584V244H74.9238ZM91.9062 236.724C91.9062 239.081 91.265 240.885 89.9824 242.135C88.7064 243.378 86.8672 244 84.4648 244H80.5098V229.723H84.8848C87.1048 229.723 88.8301 230.338 90.0605 231.568C91.291 232.799 91.9062 234.517 91.9062 236.724ZM90.1484 236.783C90.1484 234.921 89.6797 233.518 88.7422 232.574C87.8112 231.63 86.4245 231.158 84.582 231.158H82.1699V242.564H84.1914C86.1706 242.564 87.6582 242.079 88.6543 241.109C89.6504 240.133 90.1484 238.691 90.1484 236.783ZM104.689 244H103.029V231.197H98.5078V229.723H109.211V231.197H104.689V244ZM122.209 244H120.549V237.281H113.029V244H111.369V229.723H113.029V235.797H120.549V229.723H122.209V244ZM136.916 229.723V238.961C136.916 240.588 136.424 241.868 135.441 242.799C134.458 243.73 133.107 244.195 131.389 244.195C129.67 244.195 128.339 243.726 127.395 242.789C126.457 241.851 125.988 240.562 125.988 238.922V229.723H127.648V239.039C127.648 240.23 127.974 241.145 128.625 241.783C129.276 242.421 130.233 242.74 131.496 242.74C132.701 242.74 133.628 242.421 134.279 241.783C134.93 241.139 135.256 240.217 135.256 239.019V229.723H136.916ZM142.365 238.062V244H140.705V229.723H144.621C146.372 229.723 147.665 230.058 148.498 230.728C149.338 231.399 149.758 232.408 149.758 233.756C149.758 235.644 148.801 236.92 146.887 237.584L150.764 244H148.801L145.344 238.062H142.365ZM142.365 236.637H144.641C145.812 236.637 146.672 236.405 147.219 235.943C147.766 235.474 148.039 234.775 148.039 233.844C148.039 232.9 147.759 232.219 147.199 231.803C146.646 231.386 145.754 231.178 144.523 231.178H142.365V236.637Z" fill="white"/>
<path d="M49.6123 270.147C49.6123 272.876 49.1719 274.903 48.291 276.227C47.4173 277.552 46.0781 278.215 44.2734 278.215C42.526 278.215 41.2012 277.531 40.2988 276.163C39.3965 274.795 38.9453 272.79 38.9453 270.147C38.9453 267.376 39.3822 265.335 40.2559 264.024C41.1367 262.707 42.4759 262.048 44.2734 262.048C46.028 262.048 47.3564 262.735 48.2588 264.11C49.1611 265.485 49.6123 267.498 49.6123 270.147ZM41.502 270.147C41.502 272.289 41.7204 273.818 42.1572 274.734C42.6012 275.651 43.3066 276.109 44.2734 276.109C45.2402 276.109 45.9456 275.644 46.3896 274.713C46.8408 273.782 47.0664 272.26 47.0664 270.147C47.0664 268.042 46.8408 266.52 46.3896 265.582C45.9456 264.637 45.2402 264.164 44.2734 264.164C43.3066 264.164 42.6012 264.626 42.1572 265.55C41.7204 266.474 41.502 268.006 41.502 270.147ZM56.8418 262.091C58.3314 262.091 59.5094 262.434 60.376 263.122C61.2425 263.802 61.6758 264.715 61.6758 265.861C61.6758 267.473 60.709 268.754 58.7754 269.707C60.0072 270.323 60.8809 270.971 61.3965 271.651C61.9193 272.332 62.1807 273.091 62.1807 273.929C62.1807 275.225 61.7044 276.263 60.752 277.044C59.7995 277.824 58.5104 278.215 56.8848 278.215C55.1803 278.215 53.859 277.849 52.9209 277.119C51.9827 276.389 51.5137 275.354 51.5137 274.015C51.5137 273.141 51.7572 272.357 52.2441 271.662C52.7383 270.96 53.5439 270.337 54.6611 269.793C53.7015 269.22 53.0176 268.615 52.6094 267.977C52.2012 267.34 51.9971 266.624 51.9971 265.829C51.9971 264.69 52.4447 263.784 53.3398 263.111C54.235 262.431 55.4023 262.091 56.8418 262.091ZM53.9307 273.929C53.9307 274.673 54.1921 275.253 54.7148 275.669C55.2376 276.077 55.9466 276.281 56.8418 276.281C57.7656 276.281 58.4818 276.07 58.9902 275.647C59.5059 275.218 59.7637 274.638 59.7637 273.907C59.7637 273.327 59.5273 272.797 59.0547 272.317C58.582 271.837 57.8659 271.393 56.9062 270.985L56.5947 270.846C55.6494 271.261 54.9691 271.719 54.5537 272.221C54.1383 272.715 53.9307 273.284 53.9307 273.929ZM56.8203 264.035C56.1042 264.035 55.5277 264.214 55.0908 264.572C54.654 264.923 54.4355 265.403 54.4355 266.012C54.4355 266.384 54.5143 266.717 54.6719 267.011C54.8294 267.304 55.0586 267.573 55.3594 267.816C55.6602 268.053 56.1686 268.339 56.8848 268.676C57.7441 268.296 58.3493 267.899 58.7002 267.483C59.0583 267.061 59.2373 266.57 59.2373 266.012C59.2373 265.403 59.0153 264.923 58.5713 264.572C58.1344 264.214 57.5508 264.035 56.8203 264.035ZM71.5371 262.295L65.6934 278H63.3086L69.1631 262.295H71.5371ZM83.3428 278H72.6973V276.088L76.7471 272.016C77.943 270.792 78.7344 269.925 79.1211 269.417C79.515 268.901 79.8014 268.418 79.9805 267.967C80.1595 267.516 80.249 267.032 80.249 266.516C80.249 265.807 80.0342 265.249 79.6045 264.841C79.182 264.432 78.5947 264.228 77.8428 264.228C77.2412 264.228 76.6576 264.339 76.0918 264.561C75.5332 264.783 74.8851 265.184 74.1475 265.765L72.7832 264.099C73.6569 263.362 74.5055 262.839 75.3291 262.531C76.1527 262.223 77.0299 262.069 77.9609 262.069C79.4219 262.069 80.5928 262.452 81.4736 263.219C82.3545 263.978 82.7949 265.002 82.7949 266.291C82.7949 267 82.666 267.673 82.4082 268.31C82.1576 268.948 81.7673 269.607 81.2373 270.287C80.7145 270.96 79.8408 271.873 78.6162 273.026L75.8877 275.669V275.776H83.3428V278ZM95.9111 278H85.2656V276.088L89.3154 272.016C90.5114 270.792 91.3027 269.925 91.6895 269.417C92.0833 268.901 92.3698 268.418 92.5488 267.967C92.7279 267.516 92.8174 267.032 92.8174 266.516C92.8174 265.807 92.6025 265.249 92.1729 264.841C91.7503 264.432 91.1631 264.228 90.4111 264.228C89.8096 264.228 89.2259 264.339 88.6602 264.561C88.1016 264.783 87.4535 265.184 86.7158 265.765L85.3516 264.099C86.2253 263.362 87.0739 262.839 87.8975 262.531C88.721 262.223 89.5983 262.069 90.5293 262.069C91.9902 262.069 93.1611 262.452 94.042 263.219C94.9229 263.978 95.3633 265.002 95.3633 266.291C95.3633 267 95.2344 267.673 94.9766 268.31C94.7259 268.948 94.3356 269.607 93.8057 270.287C93.2829 270.96 92.4092 271.873 91.1846 273.026L88.4561 275.669V275.776H95.9111V278Z" fill="white"/>
<path d="M186.076 265.002C184.507 265.002 183.267 265.526 182.355 266.574C181.451 267.616 180.998 269.045 180.998 270.861C180.998 272.73 181.434 274.175 182.307 275.197C183.186 276.213 184.436 276.721 186.057 276.721C187.053 276.721 188.189 276.542 189.465 276.183V277.639C188.475 278.01 187.255 278.195 185.803 278.195C183.7 278.195 182.076 277.557 180.93 276.281C179.79 275.005 179.221 273.192 179.221 270.842C179.221 269.37 179.494 268.081 180.041 266.974C180.594 265.868 181.389 265.015 182.424 264.416C183.465 263.817 184.689 263.517 186.096 263.517C187.593 263.517 188.902 263.791 190.021 264.338L189.318 265.764C188.238 265.256 187.157 265.002 186.076 265.002ZM201.555 278L199.777 273.459H194.055L192.297 278H190.617L196.262 263.664H197.658L203.273 278H201.555ZM199.26 271.965L197.6 267.541C197.385 266.981 197.163 266.294 196.936 265.48C196.792 266.105 196.587 266.792 196.32 267.541L194.641 271.965H199.26ZM206.896 272.062V278H205.236V263.723H209.152C210.904 263.723 212.196 264.058 213.029 264.728C213.869 265.399 214.289 266.408 214.289 267.756C214.289 269.644 213.332 270.92 211.418 271.584L215.295 278H213.332L209.875 272.062H206.896ZM206.896 270.637H209.172C210.344 270.637 211.203 270.405 211.75 269.943C212.297 269.474 212.57 268.775 212.57 267.844C212.57 266.9 212.29 266.219 211.73 265.803C211.177 265.386 210.285 265.178 209.055 265.178H206.896V270.637ZM228.996 270.724C228.996 273.081 228.355 274.885 227.072 276.135C225.796 277.378 223.957 278 221.555 278H217.6V263.723H221.975C224.195 263.723 225.92 264.338 227.15 265.568C228.381 266.799 228.996 268.517 228.996 270.724ZM227.238 270.783C227.238 268.921 226.77 267.518 225.832 266.574C224.901 265.63 223.514 265.158 221.672 265.158H219.26V276.564H221.281C223.26 276.564 224.748 276.079 225.744 275.109C226.74 274.133 227.238 272.691 227.238 270.783ZM248.225 278H246.564V271.281H239.045V278H237.385V263.723H239.045V269.797H246.564V263.723H248.225V278ZM264.543 270.842C264.543 273.127 263.964 274.924 262.805 276.232C261.652 277.541 260.048 278.195 257.99 278.195C255.887 278.195 254.263 277.554 253.117 276.271C251.978 274.982 251.408 273.166 251.408 270.822C251.408 268.498 251.981 266.698 253.127 265.422C254.273 264.139 255.9 263.498 258.01 263.498C260.061 263.498 261.662 264.149 262.814 265.451C263.967 266.753 264.543 268.55 264.543 270.842ZM253.166 270.842C253.166 272.775 253.576 274.243 254.396 275.246C255.223 276.242 256.421 276.74 257.99 276.74C259.572 276.74 260.767 276.242 261.574 275.246C262.382 274.25 262.785 272.782 262.785 270.842C262.785 268.921 262.382 267.466 261.574 266.476C260.773 265.48 259.585 264.982 258.01 264.982C256.428 264.982 255.223 265.484 254.396 266.486C253.576 267.482 253.166 268.934 253.166 270.842ZM267.736 278V263.723H269.396V276.496H275.695V278H267.736ZM289.523 270.724C289.523 273.081 288.882 274.885 287.6 276.135C286.324 277.378 284.484 278 282.082 278H278.127V263.723H282.502C284.722 263.723 286.447 264.338 287.678 265.568C288.908 266.799 289.523 268.517 289.523 270.724ZM287.766 270.783C287.766 268.921 287.297 267.518 286.359 266.574C285.428 265.63 284.042 265.158 282.199 265.158H279.787V276.564H281.809C283.788 276.564 285.275 276.079 286.271 275.109C287.268 274.133 287.766 272.691 287.766 270.783ZM300.676 278H292.717V263.723H300.676V265.197H294.377V269.797H300.295V271.262H294.377V276.516H300.676V278ZM305.51 272.062V278H303.85V263.723H307.766C309.517 263.723 310.809 264.058 311.643 264.728C312.482 265.399 312.902 266.408 312.902 267.756C312.902 269.644 311.945 270.92 310.031 271.584L313.908 278H311.945L308.488 272.062H305.51ZM305.51 270.637H307.785C308.957 270.637 309.816 270.405 310.363 269.943C310.91 269.474 311.184 268.775 311.184 267.844C311.184 266.9 310.904 266.219 310.344 265.803C309.79 265.386 308.898 265.178 307.668 265.178H305.51V270.637Z" fill="white"/>
<path d="M186.862 247L182.308 233.884H182.222C182.343 235.832 182.404 237.658 182.404 239.362V247H180.073V231.295H183.693L188.055 243.788H188.119L192.609 231.295H196.24V247H193.77V239.233C193.77 238.453 193.787 237.436 193.823 236.182C193.866 234.929 193.902 234.17 193.931 233.905H193.845L189.129 247H186.862ZM204.114 247.215C202.632 247.215 201.475 246.678 200.645 245.603C199.814 244.529 199.398 243.022 199.398 241.081C199.398 239.133 199.817 237.618 200.655 236.537C201.5 235.448 202.668 234.904 204.157 234.904C205.718 234.904 206.907 235.481 207.724 236.634H207.853C207.731 235.781 207.67 235.108 207.67 234.614V230.285H210.205V247H208.229L207.788 245.442H207.67C206.861 246.624 205.675 247.215 204.114 247.215ZM204.791 245.174C205.829 245.174 206.585 244.884 207.058 244.304C207.53 243.716 207.774 242.767 207.788 241.457V241.102C207.788 239.606 207.545 238.542 207.058 237.912C206.571 237.282 205.808 236.967 204.77 236.967C203.882 236.967 203.198 237.328 202.718 238.052C202.238 238.768 201.998 239.792 201.998 241.124C201.998 242.442 202.231 243.448 202.696 244.142C203.162 244.83 203.86 245.174 204.791 245.174ZM226.587 247L222.032 233.884H221.946C222.068 235.832 222.129 237.658 222.129 239.362V247H219.798V231.295H223.418L227.779 243.788H227.844L232.334 231.295H235.965V247H233.494V239.233C233.494 238.453 233.512 237.436 233.548 236.182C233.591 234.929 233.627 234.17 233.655 233.905H233.569L228.854 247H226.587ZM250.37 241.038C250.37 242.979 249.872 244.493 248.877 245.582C247.882 246.67 246.496 247.215 244.72 247.215C243.61 247.215 242.629 246.964 241.776 246.463C240.924 245.961 240.269 245.242 239.811 244.304C239.352 243.365 239.123 242.277 239.123 241.038C239.123 239.112 239.617 237.608 240.605 236.526C241.594 235.445 242.987 234.904 244.784 234.904C246.503 234.904 247.864 235.459 248.866 236.569C249.869 237.672 250.37 239.162 250.37 241.038ZM241.723 241.038C241.723 243.781 242.736 245.152 244.763 245.152C246.768 245.152 247.771 243.781 247.771 241.038C247.771 238.324 246.761 236.967 244.741 236.967C243.681 236.967 242.911 237.318 242.432 238.019C241.959 238.721 241.723 239.727 241.723 241.038ZM261.263 243.616C261.263 244.776 260.84 245.668 259.995 246.291C259.15 246.907 257.94 247.215 256.364 247.215C254.782 247.215 253.51 246.975 252.551 246.495V244.314C253.947 244.959 255.247 245.281 256.45 245.281C258.004 245.281 258.781 244.812 258.781 243.874C258.781 243.573 258.695 243.322 258.523 243.122C258.352 242.921 258.069 242.714 257.675 242.499C257.281 242.284 256.733 242.041 256.031 241.768C254.663 241.238 253.736 240.709 253.249 240.179C252.769 239.649 252.529 238.961 252.529 238.116C252.529 237.099 252.938 236.311 253.754 235.753C254.577 235.187 255.695 234.904 257.105 234.904C258.502 234.904 259.823 235.187 261.069 235.753L260.253 237.654C258.971 237.124 257.893 236.859 257.02 236.859C255.688 236.859 255.021 237.239 255.021 237.998C255.021 238.37 255.193 238.685 255.537 238.943C255.888 239.201 256.647 239.556 257.814 240.007C258.796 240.386 259.508 240.734 259.952 241.049C260.396 241.364 260.726 241.729 260.94 242.144C261.155 242.553 261.263 243.043 261.263 243.616ZM274.454 247H271.919V239.695C271.919 238.779 271.733 238.095 271.36 237.643C270.995 237.192 270.411 236.967 269.609 236.967C268.549 236.967 267.769 237.285 267.268 237.923C266.773 238.553 266.526 239.613 266.526 241.102V247H264.002V230.285H266.526V234.528C266.526 235.209 266.483 235.935 266.397 236.709H266.559C266.902 236.136 267.379 235.692 267.987 235.377C268.603 235.062 269.319 234.904 270.136 234.904C273.015 234.904 274.454 236.354 274.454 239.255V247ZM282.672 245.195C283.732 245.195 284.491 244.891 284.949 244.282C285.415 243.666 285.647 242.739 285.647 241.5V241.102C285.647 239.634 285.408 238.578 284.928 237.933C284.455 237.289 283.689 236.967 282.629 236.967C281.727 236.967 281.039 237.325 280.566 238.041C280.094 238.757 279.857 239.785 279.857 241.124C279.857 243.838 280.796 245.195 282.672 245.195ZM281.952 247.215C280.484 247.215 279.335 246.678 278.504 245.603C277.673 244.522 277.258 243.015 277.258 241.081C277.258 239.147 277.68 237.636 278.525 236.548C279.37 235.452 280.534 234.904 282.017 234.904C282.761 234.904 283.427 235.044 284.015 235.323C284.609 235.595 285.139 236.046 285.604 236.677H285.69L285.97 235.119H288.064V252.285H285.529V247.247C285.529 246.932 285.544 246.599 285.572 246.248C285.601 245.897 285.626 245.628 285.647 245.442H285.508C284.763 246.624 283.578 247.215 281.952 247.215ZM300.053 247L299.698 245.442H299.569C299.218 245.994 298.717 246.427 298.065 246.742C297.421 247.057 296.683 247.215 295.853 247.215C294.413 247.215 293.339 246.857 292.63 246.141C291.921 245.424 291.566 244.339 291.566 242.886V235.119H294.112V242.445C294.112 243.355 294.299 244.039 294.671 244.497C295.043 244.948 295.627 245.174 296.422 245.174C297.482 245.174 298.259 244.859 298.753 244.228C299.254 243.591 299.505 242.528 299.505 241.038V235.119H302.04V247H300.053ZM311.665 234.904C312.174 234.904 312.592 234.94 312.922 235.012L312.675 237.364C312.317 237.278 311.944 237.235 311.558 237.235C310.548 237.235 309.728 237.565 309.098 238.224C308.475 238.882 308.163 239.738 308.163 240.791V247H305.639V235.119H307.615L307.948 237.214H308.077C308.471 236.505 308.983 235.943 309.613 235.527C310.251 235.112 310.935 234.904 311.665 234.904ZM330.861 247L329.293 242.639H323.288L321.752 247H319.045L324.921 231.23H327.714L333.59 247H330.861ZM328.616 240.426L327.145 236.15C327.037 235.864 326.887 235.413 326.693 234.797C326.507 234.181 326.378 233.73 326.307 233.443C326.113 234.324 325.83 235.287 325.458 236.333L324.04 240.426H328.616ZM337.919 247H335.395V230.285H337.919V247ZM348.973 247L348.468 245.346H348.382C347.809 246.069 347.232 246.563 346.652 246.828C346.072 247.086 345.327 247.215 344.418 247.215C343.251 247.215 342.338 246.9 341.679 246.269C341.027 245.639 340.701 244.748 340.701 243.595C340.701 242.37 341.156 241.446 342.065 240.823C342.975 240.2 344.361 239.86 346.223 239.803L348.274 239.738V239.104C348.274 238.345 348.095 237.78 347.737 237.407C347.386 237.028 346.839 236.838 346.094 236.838C345.485 236.838 344.901 236.927 344.343 237.106C343.784 237.285 343.247 237.497 342.731 237.74L341.915 235.935C342.56 235.599 343.265 235.345 344.031 235.173C344.798 234.994 345.521 234.904 346.201 234.904C347.712 234.904 348.851 235.234 349.617 235.892C350.391 236.551 350.777 237.586 350.777 238.997V247H348.973ZM345.213 245.281C346.13 245.281 346.864 245.027 347.415 244.518C347.974 244.003 348.253 243.283 348.253 242.359V241.328L346.728 241.392C345.539 241.435 344.672 241.636 344.128 241.994C343.591 242.345 343.322 242.886 343.322 243.616C343.322 244.146 343.48 244.558 343.795 244.851C344.11 245.138 344.583 245.281 345.213 245.281ZM364.312 247H361.777V239.674C361.777 238.764 361.605 238.087 361.262 237.643C360.918 237.192 360.381 236.967 359.65 236.967C358.676 236.967 357.96 237.285 357.502 237.923C357.051 238.553 356.825 239.606 356.825 241.081V247H354.301V235.119H356.277L356.632 236.677H356.761C357.09 236.111 357.566 235.674 358.189 235.366C358.82 235.058 359.511 234.904 360.263 234.904C362.089 234.904 363.299 235.527 363.894 236.773H364.065C364.416 236.186 364.91 235.728 365.548 235.398C366.185 235.069 366.916 234.904 367.739 234.904C369.157 234.904 370.188 235.262 370.833 235.978C371.485 236.695 371.811 237.787 371.811 239.255V247H369.286V239.674C369.286 238.764 369.111 238.087 368.76 237.643C368.416 237.192 367.879 236.967 367.148 236.967C366.167 236.967 365.448 237.275 364.989 237.891C364.538 238.499 364.312 239.437 364.312 240.705V247Z" fill="white"/>
<path d="M55.0625 107.859C55.0625 109.516 54.4635 110.849 53.2656 111.859C52.0677 112.859 50.3906 113.458 48.2344 113.656V116.859H46.0938V113.719C43.5521 113.667 41.3229 113.219 39.4062 112.375V108.25C40.3125 108.698 41.401 109.094 42.6719 109.437C43.9531 109.781 45.0938 109.984 46.0938 110.047V105.203L45.0469 104.797C42.9844 103.984 41.5208 103.104 40.6562 102.156C39.8021 101.198 39.375 100.016 39.375 98.6093C39.375 97.0988 39.9635 95.8593 41.1406 94.8905C42.3281 93.9113 43.9792 93.3176 46.0938 93.1093V90.7186H48.2344V93.0468C50.6198 93.1509 52.776 93.6301 54.7031 94.4843L53.2344 98.1405C51.6094 97.4738 49.9427 97.0676 48.2344 96.9218V101.531C50.2656 102.312 51.7083 102.989 52.5625 103.562C53.4271 104.135 54.0573 104.766 54.4531 105.453C54.8594 106.141 55.0625 106.943 55.0625 107.859ZM50.3594 108.094C50.3594 107.656 50.1823 107.286 49.8281 106.984C49.474 106.682 48.9427 106.37 48.2344 106.047V109.937C49.651 109.698 50.3594 109.083 50.3594 108.094ZM44.0781 98.6093C44.0781 99.0676 44.2344 99.4478 44.5469 99.7499C44.8698 100.042 45.3854 100.344 46.0938 100.656V96.9843C44.75 97.1822 44.0781 97.7238 44.0781 98.6093ZM59.8281 115L68.4062 96.2499H57.1406V92.1874H73.5312V95.2186L64.8906 115H59.8281ZM83.7188 91.8593C85.9062 91.8593 87.6667 92.3593 89 93.3593C90.3438 94.3488 91.0156 95.6874 91.0156 97.3749C91.0156 98.5415 90.6927 99.5832 90.0469 100.5C89.401 101.406 88.3594 102.219 86.9219 102.937C88.6302 103.854 89.8542 104.812 90.5938 105.812C91.3438 106.802 91.7188 107.891 91.7188 109.078C91.7188 110.953 90.9844 112.463 89.5156 113.609C88.0469 114.745 86.1146 115.312 83.7188 115.312C81.2188 115.312 79.2552 114.781 77.8281 113.719C76.401 112.656 75.6875 111.151 75.6875 109.203C75.6875 107.901 76.0312 106.745 76.7188 105.734C77.4167 104.724 78.5312 103.833 80.0625 103.062C78.7604 102.239 77.8229 101.359 77.25 100.422C76.6771 99.4843 76.3906 98.4582 76.3906 97.3436C76.3906 95.7082 77.0677 94.3853 78.4219 93.3749C79.776 92.3645 81.5417 91.8593 83.7188 91.8593ZM80.1562 108.922C80.1562 109.818 80.4688 110.516 81.0938 111.016C81.7188 111.516 82.5729 111.766 83.6562 111.766C84.8542 111.766 85.75 111.51 86.3438 111C86.9375 110.479 87.2344 109.797 87.2344 108.953C87.2344 108.255 86.9375 107.604 86.3438 107C85.7604 106.385 84.8073 105.734 83.4844 105.047C81.2656 106.068 80.1562 107.359 80.1562 108.922ZM83.6875 95.3905C82.8646 95.3905 82.1979 95.604 81.6875 96.0311C81.1875 96.4478 80.9375 97.0103 80.9375 97.7186C80.9375 98.3436 81.1354 98.9061 81.5312 99.4061C81.9375 99.8957 82.6667 100.401 83.7188 100.922C84.7396 100.443 85.4531 99.953 85.8594 99.453C86.2656 98.953 86.4688 98.3749 86.4688 97.7186C86.4688 96.9999 86.2083 96.4322 85.6875 96.0155C85.1667 95.5988 84.5 95.3905 83.6875 95.3905ZM100.016 111.641C99.474 113.745 98.5573 116.239 97.2656 119.125H93.8281C94.5052 116.354 95.0312 113.739 95.4062 111.281H99.7812L100.016 111.641ZM118.484 97.2655C118.484 98.6926 118.052 99.9061 117.188 100.906C116.323 101.906 115.109 102.594 113.547 102.969V103.062C115.391 103.292 116.786 103.854 117.734 104.75C118.682 105.635 119.156 106.833 119.156 108.344C119.156 110.542 118.359 112.255 116.766 113.484C115.172 114.703 112.896 115.312 109.938 115.312C107.458 115.312 105.26 114.901 103.344 114.078V109.969C104.229 110.417 105.203 110.781 106.266 111.062C107.328 111.344 108.38 111.484 109.422 111.484C111.016 111.484 112.193 111.213 112.953 110.672C113.714 110.13 114.094 109.26 114.094 108.062C114.094 106.989 113.656 106.229 112.781 105.781C111.906 105.333 110.51 105.109 108.594 105.109H106.859V101.406H108.625C110.396 101.406 111.688 101.177 112.5 100.719C113.323 100.25 113.734 99.453 113.734 98.328C113.734 96.5988 112.651 95.7343 110.484 95.7343C109.734 95.7343 108.969 95.8593 108.188 96.1093C107.417 96.3593 106.557 96.7915 105.609 97.4061L103.375 94.078C105.458 92.578 107.943 91.828 110.828 91.828C113.193 91.828 115.057 92.3072 116.422 93.2655C117.797 94.2238 118.484 95.5572 118.484 97.2655ZM130 100.406C132.208 100.406 133.964 101.026 135.266 102.266C136.578 103.505 137.234 105.203 137.234 107.359C137.234 109.911 136.448 111.875 134.875 113.25C133.302 114.625 131.052 115.312 128.125 115.312C125.583 115.312 123.531 114.901 121.969 114.078V109.906C122.792 110.344 123.75 110.703 124.844 110.984C125.938 111.255 126.974 111.391 127.953 111.391C130.901 111.391 132.375 110.182 132.375 107.766C132.375 105.463 130.849 104.312 127.797 104.312C127.245 104.312 126.635 104.37 125.969 104.484C125.302 104.588 124.76 104.703 124.344 104.828L122.422 103.797L123.281 92.1561H135.672V96.2499H127.516L127.094 100.734L127.641 100.625C128.276 100.479 129.062 100.406 130 100.406ZM148.281 100.406C150.49 100.406 152.245 101.026 153.547 102.266C154.859 103.505 155.516 105.203 155.516 107.359C155.516 109.911 154.729 111.875 153.156 113.25C151.583 114.625 149.333 115.312 146.406 115.312C143.865 115.312 141.812 114.901 140.25 114.078V109.906C141.073 110.344 142.031 110.703 143.125 110.984C144.219 111.255 145.255 111.391 146.234 111.391C149.182 111.391 150.656 110.182 150.656 107.766C150.656 105.463 149.13 104.312 146.078 104.312C145.526 104.312 144.917 104.37 144.25 104.484C143.583 104.588 143.042 104.703 142.625 104.828L140.703 103.797L141.562 92.1561H153.953V96.2499H145.797L145.375 100.734L145.922 100.625C146.557 100.479 147.344 100.406 148.281 100.406ZM158.797 112.766C158.797 111.891 159.031 111.229 159.5 110.781C159.969 110.333 160.651 110.109 161.547 110.109C162.411 110.109 163.078 110.338 163.547 110.797C164.026 111.255 164.266 111.911 164.266 112.766C164.266 113.588 164.026 114.239 163.547 114.719C163.068 115.187 162.401 115.422 161.547 115.422C160.672 115.422 159.995 115.193 159.516 114.734C159.036 114.266 158.797 113.609 158.797 112.766ZM179.312 115H174.484V101.781L174.531 99.6093L174.609 97.2343C173.807 98.0363 173.25 98.5624 172.938 98.8124L170.312 100.922L167.984 98.0155L175.344 92.1561H179.312V115ZM187.922 115L196.5 96.2499H185.234V92.1874H201.625V95.2186L192.984 115H187.922Z" fill="white"/>
<path d="M47.9375 63.9999L42.125 48.8124H42.0312C42.1406 50.0155 42.1953 51.4452 42.1953 53.1014V63.9999H40.3555V46.8671H43.3555L48.7812 60.9999H48.875L54.3477 46.8671H57.3242V63.9999H55.332V52.9608C55.332 51.6952 55.3867 50.3202 55.4961 48.8358H55.4023L49.543 63.9999H47.9375ZM69.6406 63.9999L69.2539 62.1718H69.1602C68.5195 62.9764 67.8789 63.5233 67.2383 63.8124C66.6055 64.0936 65.8125 64.2343 64.8594 64.2343C63.5859 64.2343 62.5859 63.9061 61.8594 63.2499C61.1406 62.5936 60.7812 61.66 60.7812 60.4491C60.7812 57.8553 62.8555 56.496 67.0039 56.371L69.1836 56.3007V55.5038C69.1836 54.496 68.9648 53.7538 68.5273 53.2772C68.0977 52.7928 67.4062 52.5507 66.4531 52.5507C65.3828 52.5507 64.1719 52.8788 62.8203 53.535L62.2227 52.0468C62.8555 51.703 63.5469 51.4335 64.2969 51.2382C65.0547 51.0428 65.8125 50.9452 66.5703 50.9452C68.1016 50.9452 69.2344 51.285 69.9688 51.9647C70.7109 52.6444 71.082 53.7343 71.082 55.2343V63.9999H69.6406ZM65.2461 62.6288C66.457 62.6288 67.4062 62.2968 68.0938 61.6327C68.7891 60.9686 69.1367 60.0389 69.1367 58.8436V57.6835L67.1914 57.7655C65.6445 57.8202 64.5273 58.0624 63.8398 58.4921C63.1602 58.9139 62.8203 59.5741 62.8203 60.4725C62.8203 61.1757 63.0312 61.7108 63.4531 62.078C63.8828 62.4452 64.4805 62.6288 65.2461 62.6288ZM77.0469 63.9999H75.1016V51.1561H77.0469V63.9999ZM74.9375 47.6757C74.9375 47.2303 75.0469 46.9061 75.2656 46.703C75.4844 46.4921 75.7578 46.3866 76.0859 46.3866C76.3984 46.3866 76.668 46.4921 76.8945 46.703C77.1211 46.9139 77.2344 47.2382 77.2344 47.6757C77.2344 48.1132 77.1211 48.4413 76.8945 48.66C76.668 48.871 76.3984 48.9764 76.0859 48.9764C75.7578 48.9764 75.4844 48.871 75.2656 48.66C75.0469 48.4413 74.9375 48.1132 74.9375 47.6757ZM89.9609 63.9999V55.6913C89.9609 54.6444 89.7227 53.8632 89.2461 53.3475C88.7695 52.8319 88.0234 52.5741 87.0078 52.5741C85.6641 52.5741 84.6797 52.9374 84.0547 53.6639C83.4297 54.3905 83.1172 55.5897 83.1172 57.2616V63.9999H81.1719V51.1561H82.7539L83.0703 52.9139H83.1641C83.5625 52.2811 84.1211 51.7928 84.8398 51.4491C85.5586 51.0975 86.3594 50.9218 87.2422 50.9218C88.7891 50.9218 89.9531 51.2968 90.7344 52.0468C91.5156 52.7889 91.9062 53.9803 91.9062 55.621V63.9999H89.9609ZM102.441 46.8671H107.281C109.555 46.8671 111.199 47.2069 112.215 47.8866C113.23 48.5663 113.738 49.6405 113.738 51.1093C113.738 52.1249 113.453 52.9647 112.883 53.6288C112.32 54.285 111.496 54.7108 110.41 54.9061V55.0233C113.012 55.4686 114.312 56.8358 114.312 59.1249C114.312 60.6561 113.793 61.8514 112.754 62.7108C111.723 63.5702 110.277 63.9999 108.418 63.9999H102.441V46.8671ZM104.434 54.203H107.715C109.121 54.203 110.133 53.9843 110.75 53.5468C111.367 53.1014 111.676 52.3553 111.676 51.3085C111.676 50.3475 111.332 49.6561 110.645 49.2343C109.957 48.8046 108.863 48.5897 107.363 48.5897H104.434V54.203ZM104.434 55.8905V62.3007H108.008C109.391 62.3007 110.43 62.035 111.125 61.5038C111.828 60.9647 112.18 60.1249 112.18 58.9843C112.18 57.9218 111.82 57.1405 111.102 56.6405C110.391 56.1405 109.305 55.8905 107.844 55.8905H104.434ZM125.609 63.9999L125.223 62.1718H125.129C124.488 62.9764 123.848 63.5233 123.207 63.8124C122.574 64.0936 121.781 64.2343 120.828 64.2343C119.555 64.2343 118.555 63.9061 117.828 63.2499C117.109 62.5936 116.75 61.66 116.75 60.4491C116.75 57.8553 118.824 56.496 122.973 56.371L125.152 56.3007V55.5038C125.152 54.496 124.934 53.7538 124.496 53.2772C124.066 52.7928 123.375 52.5507 122.422 52.5507C121.352 52.5507 120.141 52.8788 118.789 53.535L118.191 52.0468C118.824 51.703 119.516 51.4335 120.266 51.2382C121.023 51.0428 121.781 50.9452 122.539 50.9452C124.07 50.9452 125.203 51.285 125.938 51.9647C126.68 52.6444 127.051 53.7343 127.051 55.2343V63.9999H125.609ZM121.215 62.6288C122.426 62.6288 123.375 62.2968 124.062 61.6327C124.758 60.9686 125.105 60.0389 125.105 58.8436V57.6835L123.16 57.7655C121.613 57.8202 120.496 58.0624 119.809 58.4921C119.129 58.9139 118.789 59.5741 118.789 60.4725C118.789 61.1757 119 61.7108 119.422 62.078C119.852 62.4452 120.449 62.6288 121.215 62.6288ZM133.016 63.9999H131.07V45.7655H133.016V63.9999ZM145.039 63.9999L144.652 62.1718H144.559C143.918 62.9764 143.277 63.5233 142.637 63.8124C142.004 64.0936 141.211 64.2343 140.258 64.2343C138.984 64.2343 137.984 63.9061 137.258 63.2499C136.539 62.5936 136.18 61.66 136.18 60.4491C136.18 57.8553 138.254 56.496 142.402 56.371L144.582 56.3007V55.5038C144.582 54.496 144.363 53.7538 143.926 53.2772C143.496 52.7928 142.805 52.5507 141.852 52.5507C140.781 52.5507 139.57 52.8788 138.219 53.535L137.621 52.0468C138.254 51.703 138.945 51.4335 139.695 51.2382C140.453 51.0428 141.211 50.9452 141.969 50.9452C143.5 50.9452 144.633 51.285 145.367 51.9647C146.109 52.6444 146.48 53.7343 146.48 55.2343V63.9999H145.039ZM140.645 62.6288C141.855 62.6288 142.805 62.2968 143.492 61.6327C144.188 60.9686 144.535 60.0389 144.535 58.8436V57.6835L142.59 57.7655C141.043 57.8202 139.926 58.0624 139.238 58.4921C138.559 58.9139 138.219 59.5741 138.219 60.4725C138.219 61.1757 138.43 61.7108 138.852 62.078C139.281 62.4452 139.879 62.6288 140.645 62.6288ZM159.289 63.9999V55.6913C159.289 54.6444 159.051 53.8632 158.574 53.3475C158.098 52.8319 157.352 52.5741 156.336 52.5741C154.992 52.5741 154.008 52.9374 153.383 53.6639C152.758 54.3905 152.445 55.5897 152.445 57.2616V63.9999H150.5V51.1561H152.082L152.398 52.9139H152.492C152.891 52.2811 153.449 51.7928 154.168 51.4491C154.887 51.0975 155.688 50.9218 156.57 50.9218C158.117 50.9218 159.281 51.2968 160.062 52.0468C160.844 52.7889 161.234 53.9803 161.234 55.621V63.9999H159.289ZM170.375 64.2343C168.516 64.2343 167.074 63.6639 166.051 62.5233C165.035 61.3749 164.527 59.7538 164.527 57.66C164.527 55.5116 165.043 53.8514 166.074 52.6796C167.113 51.5077 168.59 50.9218 170.504 50.9218C171.121 50.9218 171.738 50.9882 172.355 51.121C172.973 51.2538 173.457 51.41 173.809 51.5897L173.211 53.2421C172.781 53.0702 172.312 52.9296 171.805 52.8202C171.297 52.703 170.848 52.6444 170.457 52.6444C167.848 52.6444 166.543 54.3085 166.543 57.6366C166.543 59.2147 166.859 60.4257 167.492 61.2694C168.133 62.1132 169.078 62.535 170.328 62.535C171.398 62.535 172.496 62.3046 173.621 61.8436V63.5663C172.762 64.0116 171.68 64.2343 170.375 64.2343ZM182.105 64.2343C180.207 64.2343 178.707 63.6561 177.605 62.4999C176.512 61.3436 175.965 59.7382 175.965 57.6835C175.965 55.6132 176.473 53.9686 177.488 52.7499C178.512 51.5311 179.883 50.9218 181.602 50.9218C183.211 50.9218 184.484 51.453 185.422 52.5155C186.359 53.5702 186.828 54.9647 186.828 56.6991V57.9296H177.98C178.02 59.4374 178.398 60.5819 179.117 61.3632C179.844 62.1444 180.863 62.535 182.176 62.535C183.559 62.535 184.926 62.246 186.277 61.6678V63.4022C185.59 63.6991 184.938 63.91 184.32 64.035C183.711 64.1678 182.973 64.2343 182.105 64.2343ZM181.578 52.5507C180.547 52.5507 179.723 52.8866 179.105 53.5585C178.496 54.2303 178.137 55.16 178.027 56.3475H184.742C184.742 55.121 184.469 54.1835 183.922 53.535C183.375 52.8788 182.594 52.5507 181.578 52.5507Z" fill="white"/>
<circle cx="388" cy="61.9999" r="24" fill="#FE6565"/>
<circle cx="420" cy="61.9999" r="24" fill="#FEEF65"/>
<path d="M406 42.5038C399.944 46.8605 396 53.9695 396 61.9996C396 70.0297 399.944 77.1387 406 81.4954C422 64.2921 412.667 48.3329 406 42.5038Z" fill="#FFB228"/>
<defs>
<linearGradient id="paint0_linear_2_230" x1="34.704" y1="228.62" x2="348.099" y2="112.825" gradientUnits="userSpaceOnUse">
<stop stop-color="#8679E4"/>
<stop offset="1" stop-color="#7264D6"/>
</linearGradient>
</defs>
</svg>
