<svg width="41" height="10" viewBox="0 0 41 10" fill="none" xmlns="http://www.w3.org/2000/svg">
<path d="M15.3103 4.21767C15.2061 4.99876 14.5812 4.99876 14.0084 4.99876H13.696L13.9564 3.48865C13.9564 3.38451 14.0605 3.33243 14.1646 3.33243H14.3209C14.7375 3.33243 15.102 3.33243 15.3103 3.54072C15.3103 3.74901 15.3103 3.9573 15.3103 4.21767ZM15.0499 2.13477H12.8108C12.6546 2.13477 12.5504 2.23891 12.4983 2.39513L11.6131 8.12311C11.6131 8.22725 11.6652 8.3314 11.8214 8.3314H12.8628C13.0191 8.3314 13.1232 8.22725 13.1753 8.07104L13.4356 6.50886C13.4356 6.35264 13.5919 6.2485 13.7481 6.2485H14.4771C15.9351 6.2485 16.7683 5.51948 17.0286 4.11352C17.1328 3.48865 17.0286 3.02 16.7683 2.65549C16.3517 2.34306 15.7789 2.13477 15.0499 2.13477Z" fill="#263577"/>
<path d="M20.2051 6.30057C20.101 6.92544 19.6323 7.34202 19.0074 7.34202C18.695 7.34202 18.4347 7.23788 18.2784 7.02959C18.1222 6.8213 18.0701 6.56094 18.1222 6.30057C18.2264 5.6757 18.695 5.25912 19.3199 5.25912C19.6323 5.25912 19.8927 5.36327 20.0489 5.57156C20.153 5.72777 20.2572 5.98814 20.2051 6.30057ZM21.6631 4.21767H20.6217C20.5176 4.21767 20.4655 4.26974 20.4134 4.37389L20.3613 4.68632L20.3093 4.58218C20.101 4.26974 19.5802 4.11353 19.0595 4.11353C17.8619 4.11353 16.8725 4.99876 16.6642 6.2485C16.56 6.87337 16.7162 7.44617 17.0808 7.86275C17.3932 8.22726 17.8618 8.38347 18.4346 8.38347C19.372 8.38347 19.8927 7.75861 19.8927 7.75861L19.8406 8.07104C19.8406 8.17518 19.8927 8.27933 20.0489 8.27933H20.9862C21.1424 8.27933 21.2466 8.17519 21.2986 8.01897L21.8714 4.37389C21.8714 4.32182 21.8194 4.21767 21.6631 4.21767Z" fill="#263577"/>
<path d="M27.3377 4.21777H26.2442C26.14 4.21777 26.0359 4.26985 25.9838 4.37399L24.5258 6.56104L23.9009 4.47814C23.8488 4.32192 23.7447 4.26985 23.5885 4.26985H22.547C22.4429 4.26985 22.3387 4.37399 22.3908 4.53021L23.5885 7.967L22.4949 9.52917C22.3908 9.63332 22.4949 9.84161 22.6512 9.84161H23.7447C23.8488 9.84161 23.953 9.78954 24.0051 9.68539L27.546 4.53021C27.5981 4.37399 27.4939 4.21777 27.3377 4.21777Z" fill="#263577"/>
<path d="M31.1396 4.21767C31.0354 4.99876 30.4106 4.99876 29.8378 4.99876H29.5253L29.7857 3.48865C29.7857 3.38451 29.8898 3.33243 29.994 3.33243H30.1502C30.5668 3.33243 30.9313 3.33243 31.1396 3.54072C31.1916 3.74901 31.1916 3.9573 31.1396 4.21767ZM30.8792 2.13477H28.6401C28.4839 2.13477 28.3797 2.23891 28.3277 2.39513L27.4424 8.12311C27.4424 8.22725 27.4945 8.3314 27.6507 8.3314H28.7963C28.9004 8.3314 29.0046 8.27933 29.0046 8.12311L29.265 6.50886C29.265 6.35264 29.4212 6.2485 29.5774 6.2485H30.3064C31.7644 6.2485 32.5976 5.51948 32.858 4.11352C32.9621 3.48865 32.858 3.02 32.5976 2.65549C32.2331 2.34306 31.6603 2.13477 30.8792 2.13477Z" fill="#2199D6"/>
<path d="M36.0865 6.30057C35.9823 6.92544 35.5137 7.34202 34.8888 7.34202C34.5764 7.34202 34.316 7.23788 34.1598 7.02959C34.0036 6.8213 33.9515 6.56094 34.0036 6.30057C34.1077 5.6757 34.5764 5.25912 35.2013 5.25912C35.5137 5.25912 35.7741 5.36327 35.9303 5.57156C36.0344 5.72777 36.1386 5.98814 36.0865 6.30057ZM37.5445 4.21767H36.5031C36.3989 4.21767 36.3468 4.26974 36.2948 4.37389L36.2427 4.68632L36.1906 4.58218C35.9823 4.26974 35.4616 4.11353 34.9409 4.11353C33.7432 4.11353 32.7538 4.99876 32.5456 6.2485C32.4414 6.87337 32.5976 7.44617 32.9621 7.86275C33.2746 8.22726 33.7432 8.38347 34.316 8.38347C35.2533 8.38347 35.774 7.75861 35.774 7.75861L35.722 8.07104C35.722 8.17518 35.7741 8.27933 35.9303 8.27933H36.8676C37.0238 8.27933 37.1279 8.17519 37.18 8.01897L37.7528 4.37389C37.7528 4.32182 37.6487 4.21767 37.5445 4.21767Z" fill="#2199D6"/>
<path d="M38.7931 2.29098L37.8558 8.12311C37.8558 8.22725 37.9079 8.3314 38.0641 8.3314H39.0014C39.1576 8.3314 39.2617 8.22725 39.3138 8.07104L40.199 2.34306C40.199 2.23891 40.147 2.13477 39.9908 2.13477H38.9493C38.8972 2.13477 38.8452 2.23891 38.7931 2.29098Z" fill="#2199D6"/>
<path d="M2.3433 9.42495L2.49951 8.33143H2.13501H0.312469L1.56222 0.364328C1.56222 0.364328 1.56221 0.312256 1.61428 0.312256H1.66636H4.73864C5.72801 0.312256 6.45703 0.520546 6.82154 0.937127C6.97775 1.14542 7.0819 1.35371 7.13398 1.562C7.18605 1.82236 7.18605 2.08272 7.13398 2.44723V2.65552L7.29019 2.75967C7.44641 2.81174 7.55056 2.91588 7.6547 3.02003C7.81092 3.17625 7.91506 3.38454 7.91506 3.6449C7.96714 3.90526 7.96713 4.2177 7.86299 4.5822C7.75884 4.99879 7.6547 5.31122 7.49848 5.62365C7.34226 5.88402 7.13397 6.09231 6.92568 6.3006C6.71739 6.45682 6.40495 6.56096 6.14459 6.6651C5.83216 6.71718 5.51972 6.76925 5.15522 6.76925H4.89485C4.73864 6.76925 4.58242 6.82132 4.4262 6.92547C4.32206 7.02961 4.21791 7.18583 4.16584 7.34205V7.44619L3.8534 9.37288V9.42495V9.47702C3.8534 9.47702 3.8534 9.47702 3.80133 9.47702H2.3433V9.42495Z" fill="#263577"/>
<path d="M7.49862 2.44727C7.49862 2.49934 7.49862 2.55141 7.44655 2.60348C7.02997 4.68639 5.67609 5.36333 3.90562 5.36333H3.02038C2.81209 5.36333 2.60381 5.51955 2.60381 5.72784L2.13515 8.6439L2.03101 9.47706C2.03101 9.63328 2.13515 9.73742 2.23929 9.73742H3.85354C4.06184 9.73742 4.21805 9.5812 4.21805 9.42499V9.32084L4.53049 7.44623V7.34208C4.58256 7.13379 4.73878 7.02965 4.895 7.02965H5.15536C6.71753 7.02965 7.9152 6.40478 8.22764 4.58224C8.38385 3.80115 8.27971 3.17628 7.91521 2.7597C7.81106 2.65556 7.65484 2.55141 7.49862 2.44727Z" fill="#2199D6"/>
<path d="M7.08205 2.29098C7.02998 2.29098 6.97791 2.23891 6.87377 2.23891C6.82169 2.23891 6.71755 2.18684 6.66547 2.18684C6.40511 2.13476 6.14475 2.13477 5.88438 2.13477H3.48905C3.43698 2.13477 3.38491 2.13476 3.33283 2.18684C3.22869 2.23891 3.12455 2.34305 3.12455 2.4472L2.60382 5.6757V5.77984C2.65589 5.57155 2.8121 5.41534 3.02039 5.41534H3.90563C5.6761 5.41534 7.02998 4.68632 7.44656 2.65549C7.44656 2.60342 7.44656 2.55135 7.49864 2.49927C7.39449 2.4472 7.29034 2.39513 7.1862 2.34306C7.13413 2.29098 7.08205 2.29098 7.08205 2.29098Z" fill="#252C5E"/>
<path d="M3.12435 2.44741C3.12435 2.34326 3.22849 2.23912 3.33264 2.18705C3.38471 2.18705 3.43679 2.13497 3.48886 2.13497H5.88419C6.14455 2.13497 6.45699 2.13497 6.66528 2.18705C6.71735 2.18705 6.8215 2.18705 6.87357 2.23912C6.92565 2.23912 6.97772 2.29119 7.08186 2.29119C7.13393 2.29119 7.13393 2.29119 7.186 2.34326C7.29015 2.39534 7.3943 2.44741 7.49844 2.49948C7.60259 1.71839 7.49844 1.19767 7.08186 0.729014C6.61321 0.208289 5.78005 0 4.7386 0H1.66632C1.45803 0 1.24974 0.156216 1.24974 0.364506L0 8.38368C0 8.5399 0.104145 8.69611 0.260363 8.69611H2.13497L2.60363 5.67591L3.12435 2.44741Z" fill="#263577"/>
</svg>
