<svg width="40" height="13" viewBox="0 0 40 13" fill="none" xmlns="http://www.w3.org/2000/svg">
<path d="M37.3101 0.534912H34.7955C34.0353 0.534912 33.4505 0.768829 33.0996 1.52906L28.3044 12.4647H31.6961C31.6961 12.4647 32.2809 11.0027 32.3979 10.6518C32.7488 10.6518 36.0821 10.6518 36.5499 10.6518C36.6669 11.0612 36.9593 12.4062 36.9593 12.4062H40.0002L37.3101 0.534912ZM33.3336 8.19569C33.626 7.49394 34.6201 4.86237 34.6201 4.86237C34.6201 4.92085 34.9125 4.16062 35.0295 3.75127L35.2634 4.80389C35.2634 4.80389 35.9066 7.66937 36.0236 8.25417H33.3336V8.19569Z" fill="#3362AB"/>
<path d="M28.5378 8.54671C28.5378 11.0028 26.3156 12.6403 22.8653 12.6403C21.4033 12.6403 19.9998 12.3479 19.2396 11.997L19.7074 9.30694L20.1168 9.48237C21.1694 9.95021 21.8712 10.1256 23.1577 10.1256C24.0934 10.1256 25.0875 9.77477 25.0875 8.95606C25.0875 8.42975 24.6782 8.07887 23.3916 7.49408C22.1636 6.90929 20.5261 5.97362 20.5261 4.27773C20.5261 1.93856 22.8068 0.359619 26.0232 0.359619C27.2512 0.359619 28.3039 0.593536 28.9471 0.885932L28.4793 3.45902L28.2454 3.2251C27.6606 2.99118 26.9004 2.75727 25.7893 2.75727C24.5612 2.81575 23.9764 3.34206 23.9764 3.80989C23.9764 4.3362 24.6782 4.74556 25.7893 5.27187C27.6606 6.14906 28.5378 7.14321 28.5378 8.54671Z" fill="#3362AB"/>
<path d="M0 0.65213L0.0584792 0.418213H5.08769C5.78944 0.418213 6.31575 0.65213 6.49119 1.41236L7.6023 6.67549C6.49119 3.86849 3.91811 1.5878 0 0.65213Z" fill="#F9B50B"/>
<path d="M14.6788 0.535042L9.59112 12.4063H6.14085L3.21689 2.46486C5.32214 3.80988 7.07652 5.91513 7.71979 7.37711L8.07066 8.60517L11.2285 0.476562H14.6788V0.535042Z" fill="#3362AB"/>
<path d="M16.023 0.476562H19.2394L17.1926 12.4063H13.9763L16.023 0.476562Z" fill="#3362AB"/>
</svg>
